HIERARCHY
ROOT Hips
{
	OFFSET 0.000000 0.000000 0.000000
	CHANNELS 6 Xposition Yposition Zposition Zrotation Yrotation Xrotation 
	JOINT LHipJoint
	{
		OFFSET 0.000000 0.000000 0.000000
		CHANNELS 3 Zrotation Yrotation Xrotation
		JOINT LeftUpLeg
		{
			OFFSET 8.178360 -10.767780 5.035740
			CHANNELS 3 Zrotation Yrotation Xrotation
			JOINT LeftLeg
			{
				OFFSET 14.688660 -40.356780 0.000000
				CHANNELS 3 Zrotation Yrotation Xrotation
				JOINT LeftFoot
				{
					OFFSET 15.373200 -42.237540 0.000000
					CHANNELS 3 Zrotation Yrotation Xrotation
					JOINT LeftToeBase
					{
						OFFSET 0.945840 -2.598660 13.935300
						CHANNELS 3 Zrotation Yrotation Xrotation
						End Site
						{
							OFFSET 0.000000 0.000000 0.000000
						}
					}
				}
			}
		}
	}
	JOINT RHipJoint
	{
		OFFSET 0.000000 0.000000 0.000000
		CHANNELS 3 Zrotation Yrotation Xrotation
		JOINT RightUpLeg
		{
			OFFSET -7.833120 -10.767780 5.035740
			CHANNELS 3 Zrotation Yrotation Xrotation
			JOINT RightLeg
			{
				OFFSET -15.255180 -41.913300 0.000000
				CHANNELS 3 Zrotation Yrotation Xrotation
				JOINT RightFoot
				{
					OFFSET -15.409560 -42.337380 0.000000
					CHANNELS 3 Zrotation Yrotation Xrotation
					JOINT RightToeBase
					{
						OFFSET -0.988380 -2.715540 14.178900
						CHANNELS 3 Zrotation Yrotation Xrotation
						End Site
						{
							OFFSET 0.000000 0.000000 0.000000
						}
					}
				}
			}
		}
	}
	JOINT LowerBack
	{
		OFFSET 0.000000 0.000000 0.000000
		CHANNELS 3 Zrotation Yrotation Xrotation
		JOINT Spine
		{
			OFFSET 0.169620 12.213540 -1.160280
			CHANNELS 3 Zrotation Yrotation Xrotation
			JOINT Spine1
			{
				OFFSET 0.340320 12.293100 -0.256500
				CHANNELS 3 Zrotation Yrotation Xrotation
				JOINT Neck
				{
					OFFSET 0.000000 0.000000 0.000000
					CHANNELS 3 Zrotation Yrotation Xrotation
					JOINT Neck1
					{
						OFFSET -0.325020 10.477440 1.032120
						CHANNELS 3 Zrotation Yrotation Xrotation
						JOINT Head
						{
							OFFSET 0.624420 10.568160 -0.743820
							CHANNELS 3 Zrotation Yrotation Xrotation
							End Site
							{
								OFFSET 0.000000 0.000000 0.000000
							}
						}
					}
				}
				JOINT LeftShoulder
				{
					OFFSET 0.000000 0.000000 0.000000
					CHANNELS 3 Zrotation Yrotation Xrotation
					JOINT LeftArm
					{
						OFFSET 20.174460 7.205340 -1.867260
						CHANNELS 3 Zrotation Yrotation Xrotation
						JOINT LeftForeArm
						{
							OFFSET 29.898000 -0.000000 -0.000000
							CHANNELS 3 Zrotation Yrotation Xrotation
							JOINT LeftHand
							{
								OFFSET 20.901360 -0.000000 -0.000000
								CHANNELS 3 Zrotation Yrotation Xrotation
								JOINT LeftFingerBase
								{
									OFFSET 0.000000 0.000000 0.000000
									CHANNELS 3 Zrotation Yrotation Xrotation
									JOINT LeftHandIndex1
									{
										OFFSET 4.291560 -0.000000 -0.000000
										CHANNELS 3 Zrotation Yrotation Xrotation
										End Site
										{
											OFFSET 0.000000 0.000000 0.000000
										}
									}
								}
								JOINT LThumb
								{
									OFFSET 0.000000 0.000000 0.000000
									CHANNELS 3 Zrotation Yrotation Xrotation
									End Site
									{
										OFFSET 0.000000 0.000000 0.000000
									}
								}
							}
						}
					}
				}
				JOINT RightShoulder
				{
					OFFSET 0.000000 0.000000 0.000000
					CHANNELS 3 Zrotation Yrotation Xrotation
					JOINT RightArm
					{
						OFFSET -18.819600 8.244300 -2.427900
						CHANNELS 3 Zrotation Yrotation Xrotation
						JOINT RightForeArm
						{
							OFFSET -31.451400 -0.000000 -0.000000
							CHANNELS 3 Zrotation Yrotation Xrotation
							JOINT RightHand
							{
								OFFSET -20.665020 -0.000000 -0.000000
								CHANNELS 3 Zrotation Yrotation Xrotation
								JOINT RightFingerBase
								{
									OFFSET 0.000000 0.000000 0.000000
									CHANNELS 3 Zrotation Yrotation Xrotation
									JOINT RightHandIndex1
									{
										OFFSET -3.735180 -0.000000 -0.000000
										CHANNELS 3 Zrotation Yrotation Xrotation
										End Site
										{
											OFFSET 0.000000 0.000000 0.000000
										}
									}
								}
								JOINT RThumb
								{
									OFFSET 0.000000 0.000000 0.000000
									CHANNELS 3 Zrotation Yrotation Xrotation
									End Site
									{
										OFFSET 0.000000 0.000000 0.000000
									}
								}
							}
						}
					}
				}
			}
		}
	}
}
MOTION
Frames:	6
Frame Time:	0.0333333
-96.220374 107.177616 86.689404 3.117729 33.739529 4.250987 -3.498108 1.512811 2.804090 -14.158732 -6.190197 -7.227735 -0.779719 6.090822 18.287257 -0.814832 5.109551 -2.347707 0.861300 -5.918100 -16.547100 1.602703 -1.019906 1.063110 13.941168 4.412977 -14.334478 -2.578052 -10.900642 32.359930 0.022999 -2.499719 -7.264548 -0.137800 -2.392300 6.591300 -2.432366 -2.722382 4.705723 1.038389 -3.724442 0.208672 1.124935 -1.910937 -3.947944 -18.674212 -16.087466 2.992087 6.111358 -21.969626 16.031067 3.601600 -11.452700 11.066100 -6.947023 -0.594990 -1.359896 -84.792629 4.479113 15.920679 14.186653 -20.179655 -2.996384 -1.369808 -2.388528 6.761539 17.625559 21.641800 7.893800 -7.125000 0.000000 0.000000 -11.362300 54.953200 -2.804200 5.133868 1.622534 -0.609489 83.628306 1.808241 19.662193 -13.953415 20.765292 -2.782228 0.274376 -0.099377 10.054000 -11.657352 5.829580 -1.240400 7.125000 0.000000 0.000000 10.922500 -23.986700 5.637900 
-96.248718 107.204754 86.723172 2.927414 34.006559 4.082621 -3.487318 1.506291 2.790751 -13.927790 -6.246070 -7.391370 -0.724534 6.223900 18.665063 -0.729572 4.676288 -2.393811 0.659600 -5.194400 -14.463900 1.609079 -1.028650 1.078122 14.178710 4.378805 -14.008661 -2.497927 -10.774910 31.969005 0.094782 -2.793573 -7.222357 -0.150900 -2.503300 6.898800 -2.407263 -2.709997 4.623915 1.099831 -3.706257 0.208484 1.214128 -1.903427 -3.907504 -18.628449 -16.081448 3.273699 6.091390 -21.996752 15.883253 3.611000 -11.475600 10.929700 -6.940408 -0.621298 -1.347332 -84.891584 4.134306 16.140164 14.201249 -20.177764 -2.999979 -1.364756 -2.428691 6.899567 17.430578 22.135778 7.959800 -7.125000 0.000000 0.000000 -11.826100 55.448500 -3.064200 5.140784 1.631367 -0.600152 83.535619 2.004642 20.033548 -14.000755 20.811403 -2.789660 0.340124 -0.139334 9.389408 -13.399593 6.545856 -1.616900 7.125000 0.000000 0.000000 9.548100 -23.186200 5.086200 
-96.309630 107.203548 86.722572 2.707233 34.349009 3.934774 -3.483310 1.502133 2.786494 -13.679844 -6.200874 -7.501093 -0.706314 6.256988 18.753883 -0.681464 4.410952 -2.132720 0.428100 -4.198900 -11.637000 1.601645 -1.031965 1.071851 14.477541 4.388174 -13.903756 -2.487452 -10.760294 31.931892 0.174911 -3.155650 -7.371179 -0.176800 -2.708600 7.468600 -2.615305 -2.705849 4.346462 1.263206 -3.707414 0.335615 1.633622 -1.918712 -3.473755 -18.681352 -16.192224 3.097649 6.080850 -22.104898 15.734301 3.574500 -11.517800 10.902900 -6.925211 -0.654065 -1.330224 -85.193888 3.586605 16.388838 14.379523 -20.391234 -3.089112 -1.236132 -2.318188 6.733064 16.339695 20.533350 6.934300 -7.125000 0.000000 0.000000 -12.267300 53.499800 -2.594800 5.166682 1.631394 -0.576180 83.192972 2.659007 20.252667 -13.927989 20.707183 -2.756431 0.367961 -0.199718 8.980616 -14.315590 7.927113 -2.107400 7.125000 0.000000 0.000000 8.792400 -21.689300 4.978100 
-96.331338 107.199930 86.712318 2.874134 34.597632 4.062994 -3.494455 1.492585 2.768903 -13.793434 -6.375391 -7.491644 -0.722219 6.224691 18.662448 -0.685901 4.423805 -2.024684 0.476900 -4.428600 -12.285800 1.599550 -1.030314 1.072924 14.333554 4.213889 -14.056162 -2.510474 -10.797769 32.042480 0.176786 -3.174116 -7.412408 -0.162300 -2.595300 7.154000 -2.840690 -2.705031 4.226724 1.230989 -3.721281 0.333529 1.707370 -1.926171 -3.392182 -18.699558 -16.220353 2.978038 6.038002 -22.128672 15.811298 3.545100 -11.526900 10.957800 -6.899581 -0.668578 -1.336847 -85.158155 3.474041 16.887122 14.692724 -20.844324 -3.240936 -1.182529 -2.382723 6.173814 16.067659 21.038590 6.958600 -7.125000 0.000000 0.000000 -12.822600 53.996900 -2.872100 5.152095 1.636452 -0.571237 83.152212 2.895328 20.613912 -13.987684 20.792079 -2.780866 0.369812 -0.190343 8.616489 -14.279661 7.813134 -2.070600 7.125000 0.000000 0.000000 8.823100 -21.814300 4.970500 
-96.344610 107.277126 86.754534 2.658603 34.733608 3.835649 -3.486624 1.515100 2.756501 -13.524198 -6.986329 -7.268317 -0.696418 6.307001 18.891249 -0.648165 4.247439 -2.294809 0.215700 -2.989700 -8.249900 1.604653 -1.040536 1.080197 14.586857 4.149308 -13.797180 -2.465466 -10.728112 31.825580 0.219927 -3.355224 -7.423031 -0.168800 -2.646500 7.296100 -2.786953 -2.619186 4.178946 1.263760 -3.595582 0.406060 1.754377 -1.875105 -3.220868 -18.810540 -16.400280 2.467754 6.082086 -22.318037 16.070845 3.489100 -11.589500 11.226200 -6.878952 -0.682110 -1.339908 -85.139650 3.179507 17.696809 14.968808 -21.232548 -3.370079 -1.239397 -2.481837 5.682465 16.903079 22.202575 7.712500 -7.125000 0.000000 0.000000 -12.489200 55.419500 -3.231000 5.147877 1.657414 -0.558564 83.122633 3.203177 20.797787 -13.987411 20.792653 -2.780849 0.371860 -0.190858 7.921806 -14.232604 7.994505 -2.111800 7.125000 0.000000 0.000000 8.850000 -21.626300 5.024300 
-96.394662 107.198124 86.761770 2.178514 34.910666 3.569589 -3.462140 1.504932 2.760410 -13.108995 -6.557719 -7.655987 -0.651101 6.401663 19.142335 -0.659456 4.292117 -2.099438 0.550500 -4.753100 -13.205600 1.599291 -1.034289 1.073617 15.120572 4.025968 -13.838568 -2.464295 -10.717266 31.820481 0.293662 -3.649623 -7.358411 -0.103100 -2.070800 5.701300 -2.567946 -2.622100 4.053568 1.358088 -3.583076 0.415963 1.808284 -1.875126 -3.141747 -18.731481 -16.336699 2.671913 6.110258 -22.235432 15.701551 3.528100 -11.556400 11.002300 -6.857520 -0.706711 -1.328092 -85.183047 2.832393 17.595350 15.089298 -21.389931 -3.422967 -1.251792 -2.517497 5.766645 17.003525 22.693650 7.913100 -7.125000 0.000000 0.000000 -12.639400 55.966000 -3.439400 5.154382 1.664931 -0.556374 83.126080 3.215441 21.208629 -14.133242 20.998930 -2.839635 0.377571 -0.178582 7.962037 -14.360852 7.745283 -2.063400 7.125000 0.000000 0.000000 8.763900 -21.888600 4.921400 
